# xmcd CD database file
#
# Track frame offsets:
#	150
#	19738
#	34530
#	47765
#	62787
#	78978
#	99167
#	114411
#	129561
#	141238
#	158325
#	176438
#	191705
#	207219
#	218866
#	230477
#	249451
#	270439
#	282493
#
# Disc length: 4007 seconds
#
# Revision: 0
# Processed by: cddbd v1.5.2PL0 Copyright (c) Steve Scherf et al.
# Submitted via: CDex 1.70beta2
#
DISCID=030fa513
DTITLE=Various Artist - Wellness Lounge
DYEAR=2013
DGENRE=New Age
TTITLE0=Banda do Sul Feat. Sawa (Bahian Roots Remix) - Could you be loved
TTITLE1=Scubba (Vibes Edition) - Paradise City
TTITLE2=Cassandra Beck 254 - Material Girl
TTITLE3=Sao Vicente Feat. Ituana - As Tears go by
TTITLE4=Urban love Feat. Astrud C. and Moana - No woman no cry
TTITLE5=Groove da Praia - Miss you
TTITLE6=Jazzystics - Walking on sunshine
TTITLE7=Amazonics - Jumpin Jack Flash
TTITLE8=Anakelly - One love
TTITLE9=Freedom Dub (808 Mix) - Welcome to the jungle
TTITLE10=Freedom Dub (pleased remix) - Sympathy for the devil
TTITLE11=Groove da Praia - Used to love her
TTITLE12=Groove da praia - Is this love
TTITLE13=Corcovado Frequency Feat. Uschi - I´m free
TTITLE14=Sarah Menescal - Here come the sun
TTITLE15=Sixth finger 408 - Paint it black
TTITLE16=Sao Vicente Feat. Natalie Renoir - Holiday
TTITLE17=Scubba Feat. Sarah Menescal - Something
TTITLE18=Nova Bossa Ltd. - 19 Live to tell
EXTD=YEAR: 2013
EXTT0=
EXTT1=
EXTT2=
EXTT3=
EXTT4=
EXTT5=
EXTT6=
EXTT7=
EXTT8=
EXTT9=
EXTT10=
EXTT11=
EXTT12=
EXTT13=
EXTT14=
EXTT15=
EXTT16=
EXTT17=
EXTT18=
PLAYORDER=
